<svg width="41" height="40" viewBox="0 0 41 40" fill="none" xmlns="http://www.w3.org/2000/svg">
<path d="M3.87059 0.308887C2.83231 0.560085 1.71029 1.43091 1.20789 2.38546C0.705496 3.3735 0.738989 2.21799 0.738989 19.9526C0.738989 37.6872 0.705496 36.5317 1.22464 37.5029C1.54282 38.1058 2.34666 38.9097 2.94953 39.2278C3.92083 39.7302 2.76532 39.7135 20.4999 39.7135C38.2345 39.7135 37.079 39.747 38.0503 39.2278C38.6531 38.9097 39.457 38.1058 39.7752 37.5029C40.2776 36.5317 40.2608 37.6872 40.2608 19.9526C40.2608 2.21799 40.2943 3.3735 39.7752 2.4022C39.457 1.79933 38.6531 0.995495 38.0503 0.677311C37.079 0.174915 38.2512 0.191662 20.4664 0.208408C6.80124 0.208408 4.25576 0.225155 3.87059 0.308887ZM36.7273 1.9333C37.5144 2.13426 38.0168 2.56967 38.402 3.35676L38.6029 3.77542V11.0267V18.2779H20.4999H2.3969V11.0267V3.77542L2.59785 3.35676C2.96628 2.58642 3.48542 2.13426 4.27251 1.91655C4.5572 1.83282 8.17445 1.81608 20.4497 1.81608C34.2321 1.81608 36.3421 1.83282 36.7273 1.9333ZM38.6197 28.0412L38.6029 36.1297L38.3517 36.6489C38.067 37.235 37.7153 37.5699 37.0957 37.8546L36.6771 38.0556H20.4999H4.32275L3.90408 37.8546C3.117 37.4695 2.68159 36.9838 2.48063 36.18C2.38015 35.7948 2.3634 34.5891 2.3634 27.8402V19.9526H20.4999H38.6364L38.6197 28.0412Z" fill="#9A3F81"/>
<path d="M15.8278 5.39978C15.6435 5.58399 15.5598 5.73471 15.5598 5.90218C15.5598 6.20361 15.744 6.55529 15.9282 6.65577C16.012 6.68926 16.6986 6.7395 17.4522 6.75625L18.8421 6.78974L18.8589 10.608C18.8756 14.7109 18.8756 14.6941 19.2775 14.8951C19.646 15.0793 19.9474 15.029 20.2321 14.7443L20.5 14.4764V10.6247V6.75625H21.89C23.1627 6.75625 23.28 6.7395 23.4642 6.60553C23.7656 6.37108 23.8661 5.98591 23.7154 5.65098C23.4977 5.13184 23.5312 5.13184 19.6125 5.13184H16.0957L15.8278 5.39978Z" fill="#9A3F81"/>
<path d="M27.4836 5.2826C27.3496 5.36633 27.1989 5.55055 27.1487 5.68452C27.0817 5.85198 27.0649 7.19171 27.0649 10.0889C27.0649 14.6439 27.0649 14.6607 27.5171 14.8951C27.8185 15.0458 28.0027 15.0458 28.3042 14.8951C28.7396 14.6774 28.7563 14.5267 28.7563 11.4956V8.71564L29.6439 10.0386C30.5817 11.4286 30.8162 11.6965 31.1678 11.6965C31.62 11.6965 31.7707 11.5291 32.742 10.1224L33.6798 8.73239L33.7133 11.6295C33.7301 13.2205 33.7803 14.5937 33.8138 14.6607C33.9143 14.8449 34.266 15.0291 34.5674 15.0291C34.7349 15.0291 34.8856 14.9454 35.0698 14.7611L35.3377 14.4932V10.0721V5.65102L35.0698 5.38308C34.7851 5.09839 34.5004 5.04815 34.1487 5.19887C34.0315 5.24911 33.4621 6.03619 32.5913 7.32568C31.8377 8.4477 31.2013 9.33526 31.1678 9.30177C31.1343 9.26828 30.5147 8.34722 29.7946 7.25869C28.4717 5.2826 28.3209 5.09839 27.9023 5.09839C27.8018 5.13188 27.6176 5.19887 27.4836 5.2826Z" fill="#9A3F81"/>
<path d="M9.22961 5.41655C8.97841 5.6845 5.6626 13.8736 5.6626 14.242C5.6626 14.5769 6.09801 15.0123 6.43294 15.0123C6.88509 15.0123 7.1028 14.8114 7.40424 14.0745L7.68893 13.3879H9.78225H11.8756L12.1435 14.0578C12.4115 14.7444 12.6626 15.0123 13.0646 15.0123C13.5837 15.0123 14.0024 14.4764 13.8684 13.9908C13.8349 13.8568 13.0646 11.8975 12.1603 9.65343C10.988 6.72278 10.4689 5.51703 10.3349 5.38306C10.0502 5.11511 9.5143 5.13186 9.22961 5.41655ZM10.5023 9.93812C10.8708 10.8592 11.1555 11.6295 11.1387 11.663C11.122 11.6798 10.4856 11.6798 9.74875 11.6798L8.39228 11.663L9.02865 10.0888C9.38033 9.21802 9.68177 8.43093 9.71526 8.36394C9.74875 8.28021 9.78225 8.22997 9.79899 8.24672C9.81574 8.24672 10.1339 9.01706 10.5023 9.93812Z" fill="#9A3F81"/>
<path d="M29.8616 21.644C29.6773 21.6775 29.4261 21.7612 29.2922 21.8449C28.907 22.0459 28.3376 22.632 28.1869 22.9669L28.0529 23.2684H26.1773H24.285L24.0673 23.4861C23.8161 23.7373 23.7658 24.089 23.9333 24.4574C24.1175 24.8593 24.3017 24.876 26.2443 24.876H28.0362L28.2204 25.2277C28.4381 25.6296 28.8568 26.0316 29.3257 26.2827C29.6104 26.4335 29.7778 26.467 30.3974 26.467C31.0171 26.467 31.1845 26.4335 31.4692 26.2827C31.9381 26.0316 32.3568 25.6296 32.5745 25.2277L32.7587 24.876H34.5506C36.0913 24.876 36.3927 24.8593 36.5769 24.7421C37.0291 24.4741 37.0961 23.8545 36.7444 23.4693L36.5267 23.2516H34.6343H32.7252L32.5912 22.9502C32.407 22.565 31.8042 21.9789 31.3687 21.7947C30.9668 21.6272 30.297 21.5602 29.8616 21.644Z" fill="#9A3F81"/>
<path d="M5.42793 23.2684C4.45663 23.3186 4.43988 23.3186 4.23893 23.5363C3.92074 23.9215 4.03797 24.6081 4.47338 24.8091C4.57386 24.8593 4.89204 24.9095 5.15999 24.9095H5.66238V30.3354C5.66238 34.3881 5.67913 35.8283 5.76286 35.9623C5.96382 36.3977 5.69587 36.3809 13.0811 36.3809C20.4663 36.3809 20.1984 36.3977 20.3993 35.9623C20.4663 35.8115 20.4998 34.3713 20.4998 30.3354V24.8928H21.0022C21.7893 24.8928 22.1075 24.6248 22.1075 24.0052C22.1075 23.8043 22.0405 23.6703 21.8898 23.5196C21.6888 23.3019 21.6888 23.3019 20.2654 23.2516C18.6242 23.1846 6.88488 23.2014 5.42793 23.2684ZM18.8754 29.833V34.7732H13.0811H7.30354V29.833V24.8928H13.0978H18.8921V29.833H18.8754Z" fill="#9A3F81"/>
<path d="M9.49727 26.5843C9.39679 26.6178 9.26282 26.7518 9.16234 26.869C8.99487 27.07 8.99487 27.1369 8.99487 29.8331V32.5963L9.21258 32.8475L9.43028 33.0987L12.8633 33.1155C15.1409 33.1322 16.3801 33.1155 16.5643 33.0485C16.715 32.9982 16.916 32.881 16.9997 32.7638C17.1504 32.5628 17.1672 32.4623 17.1672 29.7996V27.0365L16.9662 26.802C16.7485 26.5341 16.4303 26.4336 16.1289 26.5508C16.0117 26.6011 15.6935 26.8188 15.4088 27.0532C14.7892 27.5556 14.0021 27.991 13.4495 28.1082C12.7294 28.259 11.8753 27.9575 10.9207 27.2039C10.636 26.9695 10.3346 26.735 10.2341 26.668C10.0667 26.5508 9.69823 26.5006 9.49727 26.5843ZM12.1935 29.7159C13.081 29.9504 13.9351 29.8331 14.9901 29.3307L15.5428 29.0628V30.2518V31.4408H13.081H10.6193V30.2518V29.0628L11.1887 29.3307C11.4901 29.4815 11.9423 29.6489 12.1935 29.7159Z" fill="#9A3F81"/>
<path d="M24.0504 28.4264C23.7992 28.6776 23.749 29.0628 23.9332 29.4312C24.1174 29.7662 24.3518 29.8164 25.4404 29.8164C26.5289 29.8164 26.7801 29.7494 26.9476 29.4312C27.1318 29.0628 27.0815 28.6776 26.8303 28.4264L26.6126 28.2087H25.4404H24.2681L24.0504 28.4264Z" fill="#9A3F81"/>
<path d="M28.99 28.4263C28.6048 28.8283 28.7053 29.4814 29.2077 29.7326C29.3082 29.7828 29.7938 29.8163 30.3967 29.8163C31.2005 29.8163 31.4685 29.7996 31.6359 29.6823C32.0881 29.4144 32.1551 28.7948 31.8034 28.4096L31.5857 28.1919H30.4134H29.2412L28.99 28.4263Z" fill="#9A3F81"/>
<path d="M33.9305 28.4263C33.6793 28.6775 33.6291 29.0627 33.8133 29.4311C33.9975 29.7661 34.232 29.8163 35.3372 29.8163C36.1411 29.8163 36.3923 29.7996 36.5597 29.6823C37.0119 29.4144 37.0789 28.7948 36.7272 28.4096L36.5095 28.1919H35.3372H34.165L33.9305 28.4263Z" fill="#9A3F81"/>
<path d="M24.318 31.5244C23.8826 31.7087 23.6817 32.3785 23.9496 32.7637C24.1673 33.0651 24.519 33.1656 25.4903 33.1656C26.4448 33.1656 26.7295 33.0819 26.9472 32.7637C27.1482 32.479 27.0979 32.0436 26.8468 31.7589L26.629 31.5077L25.5573 31.4909C24.9544 31.4742 24.4018 31.4909 24.318 31.5244Z" fill="#9A3F81"/>
<path d="M29.2582 31.5244C28.8228 31.7086 28.6218 32.3784 28.8898 32.7469C29.1075 33.065 29.3922 33.1488 30.3467 33.1488C31.318 33.1488 31.6697 33.0483 31.8874 32.7469C32.0884 32.4454 32.0549 32.0268 31.7869 31.7421L31.5692 31.4909L30.4975 31.4741C29.8946 31.4741 29.3419 31.4909 29.2582 31.5244Z" fill="#9A3F81"/>
<path d="M34.1984 31.5244C33.696 31.7421 33.5453 32.4287 33.9305 32.8641L34.1482 33.1153L35.1027 33.132C35.6554 33.1488 36.1745 33.132 36.342 33.0818C36.9448 32.8976 37.1458 32.211 36.7271 31.7421L36.5094 31.4909L35.4377 31.4741C34.8348 31.4741 34.2821 31.4909 34.1984 31.5244Z" fill="#9A3F81"/>
<path d="M24.2509 34.857C23.9662 35.0077 23.8323 35.2589 23.8323 35.5938C23.8323 35.8618 23.8825 35.979 24.05 36.1632L24.2677 36.3809H25.4399H26.6122L26.8299 36.1632C27.1983 35.778 27.0979 35.0747 26.6289 34.857C26.3778 34.7397 24.4519 34.7397 24.2509 34.857Z" fill="#9A3F81"/>
<path d="M29.1919 34.857C28.9072 35.0077 28.7732 35.2589 28.7732 35.5938C28.7732 35.8618 28.8234 35.979 28.9909 36.1632L29.2086 36.3809H30.3809H31.5531L31.7708 36.1632C32.1392 35.778 32.0388 35.0747 31.5699 34.857C31.3187 34.7397 29.3928 34.7397 29.1919 34.857Z" fill="#9A3F81"/>
<path d="M34.132 34.857C33.8474 35.0077 33.7134 35.2589 33.7134 35.5938C33.7134 35.8618 33.7636 35.979 33.9311 36.1632L34.1488 36.3809H35.321H36.4933L36.711 36.1632C37.0794 35.778 36.979 35.0747 36.5101 34.857C36.2589 34.7397 34.333 34.7397 34.132 34.857Z" fill="#9A3F81"/>
</svg>
