<svg width="64" height="63" viewBox="0 0 64 63" fill="none" xmlns="http://www.w3.org/2000/svg">
<path fill-rule="evenodd" clip-rule="evenodd" d="M13.7261 23.0611C12.7024 22.7395 10.4629 22.26 8.64874 23.4525C7.24404 24.3757 5.97715 26.3462 5.97321 30.4391H5.01147C4.4681 30.4391 4.0271 30.8731 4.0271 31.4079V47.8766C4.0271 48.4114 4.4681 48.8454 5.01147 48.8454H6.98022C7.76379 48.8454 8.51487 48.5393 9.06808 47.9939C9.62229 47.4494 9.93335 46.7103 9.93335 45.9391V42.5485H14.363C15.2923 42.5485 16.1231 42.1252 16.6635 41.4635C16.7147 41.4296 16.7629 41.3899 16.8082 41.3453L27.6885 30.6377L45.1779 35.25C45.7026 35.3885 46.242 35.0814 46.3828 34.5651L46.8011 33.0306L50.2238 33.9325C51.7998 34.3481 53.4191 33.4287 53.8404 31.8777L54.94 27.8419L59.0035 24.1161C59.5291 23.6337 59.7486 22.9081 59.5744 22.2222C59.4011 21.5354 58.8627 20.9948 58.1677 20.8117L15.8445 9.62361C15.3405 9.48993 14.8031 9.55968 14.3502 9.8164C13.8974 10.0731 13.5677 10.4965 13.4328 10.9925L10.9965 19.9379C10.8567 20.4552 11.1678 20.9861 11.6924 21.1246L14.1169 21.764L13.7261 23.0611ZM6.97432 32.3766H5.99585V46.9079H6.98022C7.24108 46.9079 7.4921 46.8062 7.67618 46.6241C7.86124 46.4429 7.9646 46.1959 7.9646 45.9391V33.3454C7.9646 33.0887 7.86124 32.8416 7.67618 32.6605C7.4921 32.4793 7.24207 32.3766 6.98219 32.3766C6.97924 32.3766 6.97629 32.3766 6.97432 32.3766ZM9.93335 38.6735V40.611H11.5782C11.469 40.3078 11.4099 39.9823 11.4099 39.6423C11.4099 39.3022 11.469 38.9767 11.5782 38.6735H9.93335ZM14.363 38.6735C14.9064 38.6735 15.3474 39.1075 15.3474 39.6423C15.3474 40.177 14.9064 40.611 14.363 40.611C13.8197 40.611 13.3787 40.177 13.3787 39.6423C13.3787 39.1075 13.8197 38.6735 14.363 38.6735ZM17.0277 38.3897L25.4924 30.0594L23.2972 29.4801L15.6358 37.0199C16.2442 37.3056 16.7374 37.791 17.0277 38.3897ZM13.171 24.9047C12.541 24.6731 10.9886 24.245 9.7414 25.0645C8.64776 25.7833 7.90455 27.3924 7.94097 30.5971C8.3613 30.7395 8.74816 30.9749 9.06808 31.2907C9.62229 31.8351 9.93335 32.5743 9.93335 33.3454V36.736H13.1395L21.1011 28.9008L13.6159 26.9274C13.36 26.8596 13.1414 26.693 13.0115 26.4653C12.8825 26.2367 12.852 25.9674 12.9268 25.7165L13.171 24.9047ZM16.0188 22.2658L15.1013 25.3135L44.7359 33.1274L46.5806 26.353L43.726 25.6002L41.2384 28.3612C40.9914 28.6353 40.6075 28.7496 40.2472 28.6547L16.0188 22.2658ZM52.856 28.0076L51.9396 31.3759C51.7988 31.8932 51.2584 32.2003 50.7337 32.0618L47.3101 31.1589L48.4825 26.8538L52.856 28.0076ZM53.7902 26.2483L57.6618 22.6988C57.6637 22.6959 57.6647 22.693 57.6647 22.6891C57.6637 22.6862 57.6608 22.6833 57.6578 22.6824L15.3346 11.4943L13.1532 19.5039L14.304 19.8081C14.3148 19.81 14.3256 19.8129 14.3365 19.8158L40.1694 26.6281L42.6569 23.8662C42.904 23.592 43.2879 23.4787 43.6482 23.5736L53.7902 26.2483ZM28.6906 17.9849C29.3836 18.167 29.7951 18.8694 29.61 19.5504C29.424 20.2324 28.7113 20.6373 28.0183 20.4552C27.3253 20.2721 26.9138 19.5707 27.0999 18.8887C27.2849 18.2067 27.9976 17.8018 28.6906 17.9849ZM23.6703 16.6606C24.3633 16.8437 24.7748 17.5451 24.5887 18.2271C24.4037 18.9081 23.69 19.314 22.998 19.1309C22.305 18.9488 21.8935 18.2465 22.0786 17.5645C22.2646 16.8834 22.9773 16.4775 23.6703 16.6606ZM18.65 15.3363C19.343 15.5194 19.7545 16.2208 19.5684 16.9028C19.3833 17.5848 18.6697 17.9897 17.9777 17.8076C17.2847 17.6245 16.8732 16.9231 17.0583 16.2411C17.2443 15.5591 17.957 15.1542 18.65 15.3363Z" fill="#9A3F81"/>
</svg>
