<svg width="64" height="63" viewBox="0 0 64 63" fill="none" xmlns="http://www.w3.org/2000/svg">
<path d="M7.11542 5.71942H56.2244V54.8284H7.11542V5.71942Z" stroke="white" stroke-width="0.882198"/>
<path d="M48.7746 28.1908V27.7497H48.3335H46.6916V20.3001H48.3335H48.7746V19.859V14.0512H52.0583V19.859V20.3001H52.4994H54.1413V27.7497H52.4994H52.0583V28.1908V42.7716C52.0583 44.3119 51.4464 45.7892 50.3573 46.8783C49.2681 47.9675 47.7909 48.5794 46.2505 48.5794C44.7102 48.5794 43.233 47.9675 42.1438 46.8783C41.0546 45.7892 40.4427 44.3119 40.4427 42.7716V34.4397V33.9986H40.0016H35.8357H35.3946V34.4397V44.8546V45.2957H35.8357H37.4776V48.5794H11.2812V45.2957H12.9231H13.3642V44.8546V13.6101C13.3642 13.1746 13.5371 12.757 13.845 12.4491C14.153 12.1412 14.5706 11.9682 15.006 11.9682H33.7527C34.1882 11.9682 34.6058 12.1412 34.9137 12.4491C35.2216 12.757 35.3946 13.1746 35.3946 13.6101V30.2738V30.7149H35.8357H40.0016C40.9895 30.7149 41.9369 31.1073 42.6355 31.8059C43.334 32.5044 43.7265 33.4518 43.7265 34.4397V42.7716C43.7265 43.441 43.9924 44.083 44.4657 44.5564C44.9391 45.0297 45.5811 45.2957 46.2505 45.2957C46.9199 45.2957 47.562 45.0297 48.0353 44.5564C48.5087 44.083 48.7746 43.441 48.7746 42.7716V28.1908ZM31.6698 45.2957H32.1109V44.8546V28.3244L32.494 27.7497H32.1109V15.693V15.2519H31.6698H17.089H16.6479V15.693V32.2232L16.2648 32.7979H16.6479V44.8546V45.2957H17.089H31.6698ZM25.4209 28.6319H30.8456L23.779 39.2318V32.3568V31.9157H23.3379H17.9132L24.9798 21.3158V28.1908V28.6319H25.4209Z" fill="#9A3F81" stroke="white" stroke-width="0.882198"/>
</svg>
