<svg width="52" height="52" viewBox="0 0 52 52" fill="none" xmlns="http://www.w3.org/2000/svg">
<mask id="mask0_6_524" style="mask-type:luminance" maskUnits="userSpaceOnUse" x="0" y="0" width="52" height="52">
<path d="M0.652143 51.1528V0.457319H51.3476V51.1528H0.652143Z" fill="white" stroke="white" stroke-width="0.0992084"/>
</mask>
<g mask="url(#mask0_6_524)">
<path d="M48.8189 11.5201V4.27992C48.8189 2.68961 47.5301 1.3999 45.9398 1.3999H22.6249C21.0346 1.3999 19.7458 2.68961 19.7458 4.27992V16.8853H25.3204C26.6269 16.8853 27.6855 17.9439 27.6855 19.2505V28.6455H48.8198V20.2475" stroke="#9A3F81" stroke-width="1.98417" stroke-linecap="round" stroke-linejoin="round"/>
<path d="M8.27444 50.2105V48.1539C8.27444 47.6211 8.13456 47.0973 7.86769 46.636L3.66026 39.3491C2.9033 37.8739 3.05211 36.0961 4.0442 34.7687L11.7209 24.2268V36.9175C11.7209 38.0098 12.6069 38.8958 13.6992 38.8958C14.7914 38.8958 15.6774 38.0098 15.6774 36.9175V32.0801C15.6774 30.4978 16.9978 29.1793 18.5782 29.1793C19.3788 29.1793 20.104 29.5037 20.6289 30.0285C21.1537 30.5543 21.4781 31.2785 21.4781 32.0801V42.8065C21.4781 43.4921 21.3352 44.1707 21.0594 44.7987L20.2271 46.6925C19.9513 47.3205 19.8084 47.9981 19.8084 48.6846V50.2105" stroke="#9A3F81" stroke-width="1.98417" stroke-linecap="round" stroke-linejoin="round"/>
<path d="M11.7209 36.9174V19.2494C11.7209 17.9428 12.7795 16.8843 14.0861 16.8843H25.3194C26.626 16.8843 27.6846 17.9428 27.6846 19.2494V37.6674C27.6846 38.974 26.626 40.0326 25.3194 40.0326H21.4771V32.08C21.4771 31.2784 21.1527 30.5542 20.6289 30.0284C20.0852 29.4837 19.3471 29.1782 18.5782 29.1792C16.9978 29.1792 15.6774 30.4976 15.6774 32.08V36.9174C15.6774 38.0097 14.7914 38.8956 13.6992 38.8956C12.6069 38.8956 11.7209 38.0097 11.7209 36.9174Z" stroke="#9A3F81" stroke-width="1.98417" stroke-linecap="round" stroke-linejoin="round"/>
<path d="M48.8189 34.9234H27.6846V28.6445H48.8189V34.9234Z" stroke="#9A3F81" stroke-width="1.98417" stroke-linecap="round" stroke-linejoin="round"/>
<path d="M37.9814 15.025C37.9814 16.9685 36.406 18.5439 34.4625 18.5439C32.519 18.5439 30.9436 16.9685 30.9436 15.025C30.9436 13.0815 32.519 11.5061 34.4625 11.5061C36.406 11.5061 37.9814 13.0815 37.9814 15.025Z" stroke="#9A3F81" stroke-width="1.98417" stroke-linecap="round" stroke-linejoin="round"/>
<path d="M26.249 11.5924C27.6707 8.19058 30.9594 6.13598 34.4278 6.12109" stroke="#9A3F81" stroke-width="1.98417" stroke-linecap="round" stroke-linejoin="round"/>
<path d="M42.6758 18.4587C41.1708 22.06 37.5745 24.1513 33.887 23.9112" stroke="#9A3F81" stroke-width="1.98417" stroke-linecap="round" stroke-linejoin="round"/>
</g>
</svg>
