<svg width="65" height="65" viewBox="0 0 65 65" fill="none" xmlns="http://www.w3.org/2000/svg">
<g clip-path="url(#clip0_6_537)">
<path d="M40.6787 37.96C40.6787 42.233 37.3166 45.6969 33.1693 45.6969C29.022 45.6969 25.6599 42.233 25.6599 37.96C25.6599 31.1901 33.1693 23.1687 33.1693 23.1687C33.1693 23.1687 40.6787 31.1901 40.6787 37.96Z" fill="#9A3F81"/>
<path fill-rule="evenodd" clip-rule="evenodd" d="M45.5599 22.0429C38.7172 15.2002 27.6229 15.2002 20.7801 22.0429L19.0101 20.2729C26.8304 12.4526 39.5096 12.4526 47.3299 20.2729C51.2236 24.1667 53.1789 29.2677 53.195 34.3695V34.3735V38.9203L57.3164 34.799L59.0863 36.569L52.8285 42.8268L51.9435 43.7118L51.0585 42.8268L44.8007 36.569L46.5707 34.799L50.6918 38.9202V34.3774V34.3754C50.6773 29.9084 48.9669 25.4499 45.5599 22.0429ZM20.7801 46.8227C27.6229 53.6654 38.7172 53.6654 45.5599 46.8227L47.3299 48.5927C39.5096 56.413 26.8304 56.413 19.0101 48.5927C15.1013 44.6838 13.146 39.5585 13.1449 34.4368V29.9446L9.02365 34.0658L7.25366 32.2959L13.5115 26.038L14.3965 25.1531L15.2815 26.038L21.5393 32.2959L19.7693 34.0658L15.6481 29.9446V34.4363C15.6491 38.9213 17.3594 43.402 20.7801 46.8227Z" fill="#9A3F81"/>
</g>
<defs>
<clipPath id="clip0_6_537">
<rect width="64" height="64" fill="white" transform="translate(0.669922 0.407715)"/>
</clipPath>
</defs>
</svg>
